# xmcd CD database file
#
# Track frame offsets:
#	150
#	49697
#	82687
#	119154
#	167045
#	200760
#
# Disc length: 3151 seconds
#
# Revision: 0
# Processed by: cddbd v1.5.2PL0 Copyright (c) Steve Scherf et al.
# Submitted via: CDex 1.70beta2
#
DISCID=4c0c4d06
DTITLE=Spencer Brewer - Kit Walker - Impressions - Reflections On The Pond
DYEAR=1996
DGENRE=New Age
TTITLE0=Crystal Dreams
TTITLE1=Rustling Reeds
TTITLE2=Sacred Mist
TTITLE3=Sunfish Serenade
TTITLE4=Through The Glass
TTITLE5=Shadow Plays
EXTD=YEAR: 1996
EXTT0=
EXTT1=
EXTT2=
EXTT3=
EXTT4=
EXTT5=
PLAYORDER=
